<?xml version="1.0" encoding="utf-8"?>
<!-- Generator: Adobe Illustrator 27.5.0, SVG Export Plug-In . SVG Version: 6.00 Build 0)  -->
<svg version="1.1" xmlns="http://www.w3.org/2000/svg" xmlns:xlink="http://www.w3.org/1999/xlink" x="0px" y="0px"
	 viewBox="0 0 500 500" style="enable-background:new 0 0 500 500;" xml:space="preserve">
<g id="BACKGROUND">
</g>
<g id="OBJECTS">
	<g style="opacity:0.19;">
		<path style="fill:#FFC329;" d="M63.847,338.042c-8.567-29.765-17.193-59.875-18.501-90.82
			c-1.308-30.945,5.396-63.29,24.673-87.533s52.701-38.457,82.372-29.57c26.352,7.892,45.284,31.501,70.869,41.607
			c53.865,21.278,115.396-23.145,171.163-7.516c27.474,7.7,49.837,30.112,59.64,56.908c9.803,26.796-2.19,54.704-13.698,80.812
			l-60.672,65.189L66.91,353.702L63.847,338.042z"/>
	</g>
	<g>
		<g>
			<path style="fill:#FF537C;" d="M149.397,167.226c0,0,11.951-5.379,9.217,13.63C158.614,180.856,146.319,178.915,149.397,167.226z
				"/>
			<path style="fill:#FF537C;" d="M152.484,151.966c0,0,11.996-5.276,9.1,13.708C161.583,165.674,149.306,163.628,152.484,151.966z"
				/>
			<path style="fill:#FF537C;" d="M157.614,138.9c0,0,11.996-5.276,9.1,13.708C166.714,152.608,154.436,150.562,157.614,138.9z"/>
			<path style="fill:#FF537C;" d="M182.705,149.612c0,0-0.291,13.102-16.27,2.45C166.435,152.063,173.48,141.801,182.705,149.612z"
				/>
			<path style="fill:#FF537C;" d="M177.574,162.679c0,0-0.291,13.102-16.27,2.45C161.304,165.129,168.35,154.867,177.574,162.679z"
				/>
			<path style="fill:#FF537C;" d="M174.176,178.089c0,0-0.291,13.102-16.27,2.45C157.906,180.539,164.952,170.278,174.176,178.089z"
				/>
			<g>
				<path style="fill:#0E2433;" d="M160.41,214.681c-3.788-25.62-2.466-53.149,13.968-74.422c0.424-0.549-0.493-1.116-0.913-0.572
					c-16.61,21.5-17.931,49.357-14.103,75.249C159.465,215.62,160.511,215.364,160.41,214.681L160.41,214.681z"/>
			</g>
			<path style="fill:#FF537C;" d="M179.035,130.469c0,0,10.262,8.152-7.883,14.442C171.152,144.911,167.237,133.096,179.035,130.469
				z"/>
		</g>
		<g>
			<g>
				<path style="fill:#00C5BA;" d="M170.808,278.397c-7.048,0.886-13.832-4.981-16.555-11.542
					c-2.723-6.561-1.293-14.644,3.515-19.873c-4.79-2.524-8.933-6.492-11.029-11.484c-2.096-4.992-1.943-11.028,0.984-15.582
					c0.842-1.31,1.92-2.55,2.192-4.083c0.276-1.553-0.33-3.111-0.908-4.578c-1.444-3.665-2.804-7.472-2.772-11.411
					c0.032-3.939,1.72-8.086,5.131-10.058c3.698-2.138,8.622-1.188,11.984,1.448c3.362,2.636,5.376,6.648,6.643,10.728
					c0.325,1.047,0.633,2.151,1.386,2.948c0.829,0.877,2.051,1.231,3.179,1.657c10.777,4.077,15.588,19.073,9.196,28.658
					c6.852,4.127,12.07,10.888,14.325,18.562c2.273,7.734,0.672,17.626-6.495,21.316
					C191.583,275.103,180.244,277.21,170.808,278.397z"/>
			</g>
			<path style="opacity:0.25;fill:#0E2433;" d="M172.861,241.346c0.033-0.031,0.073-0.053,0.098-0.094l6.392-10.561
				c0.143-0.235,0.065-0.539-0.172-0.68c-0.232-0.139-0.543-0.065-0.686,0.17l-6.034,9.97
				c-7.826-23.256-17.426-49.243-18.102-51.072c-0.095-0.257-0.384-0.389-0.642-0.294c-0.26,0.094-0.393,0.379-0.298,0.636
				c0.131,0.353,6.202,16.789,12.678,35.323l-8.001-3.732c-0.248-0.116-0.548-0.011-0.665,0.238
				c-0.118,0.248-0.011,0.543,0.239,0.66l8.883,4.143c4.046,11.609,8.197,23.902,11.115,33.501l-9.211-3.702
				c-0.257-0.105-0.548,0.019-0.65,0.273c-0.104,0.254,0.02,0.542,0.275,0.645l9.855,3.961c0.03,0.012,0.061,0.012,0.092,0.018
				c2.183,7.271,3.59,12.836,3.59,15.1c0,0.274,0.224,0.496,0.5,0.496c0.276,0,0.5-0.222,0.5-0.496
				C182.618,271.703,178.203,257.28,172.861,241.346z"/>
		</g>
		<g>
			<path style="fill:#FF537C;" d="M87.05,230.777c0,0-12.698,2.199-0.002,16.179C87.048,246.956,95.995,238.604,87.05,230.777z"/>
			<path style="fill:#FF537C;" d="M76.132,220.045c0,0-12.678,2.308,0.136,16.178C76.268,236.223,85.143,227.795,76.132,220.045z"/>
			<path style="fill:#FF537C;" d="M64.757,212.226c0,0-12.678,2.308,0.136,16.178C64.893,228.404,73.768,219.976,64.757,212.226z"/>
			<path style="fill:#FF537C;" d="M50.216,234.77c0,0,7.452,10.513,14.604-6.964C64.82,227.806,53.429,223.327,50.216,234.77z"/>
			<path style="fill:#FF537C;" d="M61.591,242.589c0,0,7.452,10.513,14.604-6.964C76.195,235.625,64.804,231.146,61.591,242.589z"/>
			<path style="fill:#FF537C;" d="M72.846,253.272c0,0,7.452,10.513,14.604-6.964C87.45,246.308,76.059,241.829,72.846,253.272z"/>
			<g>
				<path style="fill:#0E2433;" d="M104.212,275.5c-11.024-22.957-27.261-44.656-52.364-52.935c-0.648-0.214-0.213-1.18,0.428-0.969
					c25.371,8.368,41.788,30.334,52.929,53.534C105.5,275.745,104.506,276.112,104.212,275.5L104.212,275.5z"/>
			</g>
			<path style="fill:#FF537C;" d="M42.663,217.154c0,0-3.871,12.292,14.375,7.424C57.038,224.578,53.721,212.797,42.663,217.154z"/>
		</g>
		<g>
			<g>
				<path style="fill:#00C5BA;" d="M118.543,335.422c-5.454,4.552-14.331,3.277-20.166-0.774
					c-5.835-4.051-8.997-11.627-7.773-18.624c-5.394,0.462-11.024-0.64-15.484-3.709s-7.591-8.232-7.587-13.646
					c0.001-1.557,0.239-3.183-0.359-4.62c-0.607-1.456-1.958-2.44-3.236-3.363c-3.195-2.305-6.395-4.774-8.495-8.107
					c-2.101-3.333-2.919-7.735-1.113-11.236c1.958-3.797,6.615-5.656,10.868-5.253c4.253,0.403,8.115,2.692,11.384,5.442
					c0.839,0.706,1.694,1.469,2.758,1.733c1.171,0.291,2.39-0.072,3.571-0.322c11.271-2.388,23.419,7.635,23.215,19.155
					c7.995-0.227,16.038,2.646,22.081,7.887c6.09,5.282,10.083,14.472,6.044,21.448C134.25,321.431,125.844,329.328,118.543,335.422
					z"/>
			</g>
			<path style="opacity:0.25;fill:#0E2433;" d="M100.263,303.129c0.011-0.044,0.033-0.084,0.032-0.132l-0.323-12.34
				c-0.007-0.275-0.236-0.489-0.512-0.48c-0.271,0.008-0.492,0.239-0.485,0.513l0.305,11.649
				c-19.145-15.347-41.258-32.036-42.815-33.21c-0.219-0.165-0.533-0.12-0.699,0.099c-0.168,0.219-0.126,0.531,0.093,0.696
				c0.301,0.227,14.286,10.781,29.745,22.883l-8.749,1.18c-0.271,0.036-0.467,0.287-0.431,0.559
				c0.034,0.272,0.284,0.463,0.558,0.426l9.714-1.31c9.674,7.586,19.806,15.691,27.446,22.194l-9.752,1.858
				c-0.273,0.051-0.451,0.312-0.4,0.581c0.049,0.27,0.309,0.446,0.58,0.394l10.433-1.988c0.032-0.006,0.058-0.023,0.087-0.035
				c5.764,4.941,9.953,8.865,11.176,10.77c0.148,0.231,0.456,0.296,0.688,0.147s0.301-0.457,0.153-0.687
				C124.868,323.411,113.364,313.656,100.263,303.129z"/>
		</g>
	</g>
	<g>
		<g>
			<g>
				<path style="opacity:0.52;fill:#017CE6;" d="M441.587,305.031l-1.223-3.101l-9.387,10.45c-0.017,0-0.035-0.001-0.052-0.001
					l-236.041-2.467c-5.881-0.061-14.21,1.385-18.636,3.251l-88.225,37.198H55.158l0.755,15.099c-0.116,0.329-0.1,0.633,0.045,0.91
					l0.052,1.044l1.375-0.05c0.864,0.305,2.07,0.516,3.669,0.597l308.768,15.497c10.727,0.538,22.327-2.542,25.556-6.711
					l46.208-56.357V305.031z"/>
				<g>
					<path style="fill:#BFDFF6;" d="M428.939,300.447l-235.99-5.693c-6.293-0.152-10.899-5.924-10.257-12.811l13.803-147.947
						c0.608-6.519,6.105-11.959,12.234-12.104l229.389-5.408c6.953-0.164,12.389,5.39,12.057,12.359l-7.544,158.464
						C442.279,294.699,436.106,300.619,428.939,300.447z"/>
					<g style="opacity:0.5;">
						<path style="fill:#0E2433;" d="M417.885,290.121l-213.827-4.598c-6.6-0.142-11.415-6.118-10.756-13.307l11.344-123.861
							c0.628-6.861,6.369-12.534,12.82-12.661l208.651-4.116c7.237-0.143,12.852,5.664,12.49,12.962l-6.539,131.947
							C431.688,284.157,425.313,290.281,417.885,290.121z M217.377,136.69c-5.936,0.115-11.22,5.336-11.797,11.65l-11.327,123.893
							c-0.605,6.614,3.827,12.111,9.899,12.24l213.791,4.535c6.832,0.145,12.694-5.488,13.045-12.54l6.562-131.911
							c0.334-6.713-4.829-12.057-11.487-11.927L217.377,136.69z"/>
					</g>
				</g>
				<g>
					<path style="fill:#BFDFF6;" d="M368.174,368.879L59.406,353.382c-7.291-0.366-6.877-3.33,0.651-6.504l114.542-48.293
						c4.426-1.866,12.755-3.313,18.636-3.251l236.041,2.467c7.768,0.081,12.802,1.917,11.089,4.13l-46.634,60.237
						C390.501,366.337,378.901,369.417,368.174,368.879z"/>
					<path style="opacity:0.47;fill:#0E2433;" d="M412.682,300.791l-215.013-2.615c-6.299-0.077-15.123,1.479-19.815,3.51
						l-47.632,20.622c-6.043,2.616-5.353,4.977,1.746,5.2l248.21,7.787c9.618,0.302,19.809-2.132,22.543-5.333l21.108-24.713
						C425.867,302.863,420.814,300.889,412.682,300.791z M219.608,314.128l16.662,0.36l-8.34,4.555l-16.985-0.416L219.608,314.128z
						 M209.878,318.601l-16.621-0.407l8.992-4.442l16.313,0.353L209.878,318.601z M237.338,314.511l17.023,0.368l-7.98,4.615
						l-17.363-0.425L237.338,314.511z M255.452,314.903l17.395,0.376l-7.601,4.677l-17.752-0.434L255.452,314.903z M273.963,315.304
						l17.78,0.385l-7.203,4.74l-18.155-0.444L273.963,315.304z M292.884,315.713l18.178,0.393l-6.785,4.805l-18.571-0.455
						L292.884,315.713z M312.228,316.131l18.589,0.402l-6.347,4.872l-19.002-0.465L312.228,316.131z M332.009,316.559l19.013,0.411
						l-5.885,4.941l-19.447-0.476L332.009,316.559z M332.506,316.176l5.034-3.884l18.63,0.357l-4.686,3.934L332.506,316.176z
						 M331.315,316.151l-18.556-0.397l5.388-3.833l18.224,0.349L331.315,316.151z M311.595,315.728l-18.147-0.389l5.725-3.783
						l17.83,0.342L311.595,315.728z M292.31,315.316l-17.751-0.38l6.047-3.734l17.449,0.334L292.31,315.316z M273.446,314.912
						l-17.367-0.372l6.353-3.687l17.079,0.327L273.446,314.912z M254.989,314.517l-16.996-0.364l6.645-3.641l16.722,0.32
						L254.989,314.517z M236.926,314.13l-16.636-0.356l6.924-3.596l16.374,0.314L236.926,314.13z M219.245,313.751l-16.289-0.349
						l7.19-3.551l16.04,0.307L219.245,313.751z M201.934,313.381l-15.952-0.342l7.443-3.508l15.714,0.301L201.934,313.381z
						 M184.981,313.018l-15.625-0.335l7.685-3.466l15.398,0.295L184.981,313.018z M184.247,313.363l-9.322,4.383l-15.927-0.39
						l9.602-4.331L184.247,313.363z M185.249,313.384l15.975,0.346l-9.011,4.438l-16.268-0.398L185.249,313.384z M191.466,318.536
						l-9.496,4.677l-16.597-0.461l9.8-4.619L191.466,318.536z M192.511,318.562l16.647,0.411l-9.157,4.741l-16.967-0.471
						L192.511,318.562z M210.225,319l17.012,0.421l-8.8,4.805l-17.348-0.481L210.225,319z M228.328,319.448l17.391,0.43
						l-8.424,4.872l-17.744-0.492L228.328,319.448z M246.834,319.905l17.782,0.439l-8.029,4.94l-18.154-0.504L246.834,319.905z
						 M265.756,320.373l18.186,0.449l-7.614,5.01l-18.577-0.516L265.756,320.373z M285.109,320.851l18.604,0.46l-7.177,5.082
						l-19.016-0.528L285.109,320.851z M304.906,321.34l19.037,0.471l-6.717,5.157l-19.47-0.54L304.906,321.34z M325.164,321.841
						l19.483,0.482l-6.233,5.233l-19.939-0.553L325.164,321.841z M345.898,322.353l19.949,0.493l-5.723,5.311l-20.428-0.567
						L345.898,322.353z M346.385,321.942l5.857-4.945l19.454,0.421l-5.401,5.012L346.385,321.942z M352.702,316.609l4.663-3.937
						l19.052,0.365l-4.297,3.988L352.702,316.609z M357.804,312.301l4.451-3.758l18.667,0.314l-4.1,3.805L357.804,312.301z
						 M356.611,312.278l-18.597-0.352l4.808-3.71l18.262,0.307L356.611,312.278z M336.847,311.904l-18.193-0.345l5.149-3.663
						l17.873,0.301L336.847,311.904z M317.513,311.538l-17.8-0.337l5.474-3.617l17.495,0.294L317.513,311.538z M298.596,311.179
						l-17.42-0.33l5.784-3.572l17.129,0.288L298.596,311.179z M280.082,310.828l-17.052-0.323l6.08-3.529l16.774,0.282
						L280.082,310.828z M261.96,310.485l-16.696-0.316l6.363-3.486l16.431,0.276L261.96,310.485z M244.216,310.149l-16.35-0.31
						l6.632-3.444l16.096,0.271L244.216,310.149z M226.84,309.819l-16.016-0.303l6.89-3.404l15.774,0.265L226.84,309.819z
						 M209.819,309.497l-15.691-0.297l7.136-3.364l15.46,0.26L209.819,309.497z M193.142,309.181l-15.376-0.291l7.371-3.325
						l15.156,0.255L193.142,309.181z M176.8,308.871l-13.945-0.264l7.58-3.289l13.75,0.231L176.8,308.871z M176.074,309.198
						l-7.699,3.464l-14.164-0.303l7.899-3.428L176.074,309.198z M167.617,313.003l-9.619,4.328l-14.43-0.353l9.866-4.282
						L167.617,313.003z M157.201,317.69l-10.126,4.556l-14.705-0.408l10.381-4.505L157.201,317.69z M158.202,317.714l15.95,0.394
						l-9.819,4.616l-16.239-0.451L158.202,317.714z M163.518,323.107l-9.89,4.649l-16.548-0.515l10.176-4.59L163.518,323.107z
						 M164.561,323.137l16.622,0.466l-9.57,4.714l-16.923-0.526L164.561,323.137z M182.248,323.632l16.993,0.476l-9.234,4.78
						l-17.31-0.538L182.248,323.632z M200.331,324.138l137.565,3.852l-6.314,5.301l-140.465-4.369L200.331,324.138z
						 M339.179,328.026l20.468,0.573l-5.802,5.384l-20.95-0.651L339.179,328.026z M360.961,328.636l20.976,0.587l-5.262,5.47
						l-21.485-0.668L360.961,328.636z M361.435,328.194l5.692-5.316l20.429,0.505l-5.187,5.392L361.435,328.194z M367.574,322.461
						l5.371-5.016l19.91,0.431l-4.891,5.084L367.574,322.461z M373.366,317.051l4.273-3.991l19.488,0.373l-3.889,4.043
						L373.366,317.051z M378.042,312.685l4.077-3.808l19.083,0.321l-3.709,3.856L378.042,312.685z M382.503,308.518l3.895-3.637
						l18.695,0.273l-3.541,3.681L382.503,308.518z M381.308,308.498l-18.633-0.309l4.254-3.592l18.296,0.267L381.308,308.498z
						 M361.506,308.169l-18.231-0.303l4.598-3.548l17.908,0.261L361.506,308.169z M342.132,307.847l-17.843-0.296l4.926-3.504
						l17.535,0.256L342.132,307.847z M323.169,307.532l-17.466-0.29l5.239-3.462l17.172,0.25L323.169,307.532z M304.607,307.224
						l-17.101-0.284l5.538-3.421l16.82,0.245L304.607,307.224z M286.432,306.922l-16.748-0.278l5.824-3.38l16.479,0.24
						L286.432,306.922z M268.632,306.626l-16.405-0.273l6.098-3.341l16.149,0.236L268.632,306.626z M251.197,306.337l-16.072-0.267
						l6.359-3.302l15.827,0.231L251.197,306.337z M234.115,306.053l-15.751-0.262l6.609-3.265l15.516,0.226L234.115,306.053z
						 M217.375,305.775l-15.438-0.257l6.848-3.228l15.214,0.222L217.375,305.775z M200.967,305.502l-15.135-0.251l7.076-3.192
						l14.921,0.218L200.967,305.502z M184.882,305.235l-13.731-0.228l7.279-3.159l13.541,0.197L184.882,305.235z M131.222,322.335
						l0.287-0.124l14.726,0.412l-10.193,4.586l-3.185-0.099C126.333,326.908,125.679,324.741,131.222,322.335z M401.344,329.922
						c-2.531,2.939-11.89,5.169-20.716,4.894l-2.572-0.08l5.229-5.475l18.068,0.506l0.392-0.455l-18.031-0.5l5.154-5.397
						l17.585,0.435l0.369-0.428l-17.55-0.43l4.86-5.089l17.127,0.371l0.348-0.404l-17.093-0.366l3.864-4.046l16.755,0.321
						l0.332-0.385l-16.723-0.317l3.685-3.859l16.399,0.276l0.316-0.367l-16.369-0.272l3.518-3.684l16.058,0.234l0.302-0.351
						l-16.029-0.231l3.474-3.638l-1.174-0.015l-3.497,3.635l-18.662-0.268l3.848-3.594l-1.149-0.014l-3.87,3.591l-18.264-0.263
						l4.205-3.551l-1.125-0.014l-4.226,3.548l-17.878-0.257l4.547-3.508l-1.102-0.014l-4.567,3.506l-17.506-0.252l4.873-3.467
						l-1.08-0.013l-4.892,3.465l-17.144-0.247l5.186-3.427l-1.058-0.013l-5.204,3.424l-16.794-0.242l5.484-3.387l-1.037-0.013
						l-5.502,3.385l-16.454-0.237l5.77-3.349l-1.016-0.013l-5.787,3.347l-16.124-0.232l6.044-3.311l-0.997-0.012l-6.06,3.309
						l-15.803-0.227l6.305-3.275l-0.977-0.012l-6.321,3.272l-15.494-0.223l6.556-3.238l-0.959-0.012l-6.57,3.236l-15.193-0.219
						l6.795-3.203l-0.94-0.012l-6.809,3.201l-14.9-0.214l7.025-3.169l-0.923-0.011l-7.038,3.167l-13.5-0.194
						c4.39-1.797,12.231-3.156,17.882-3.086l215.347,2.658c7.492,0.092,12.13,1.914,10.24,4.108L401.344,329.922z"/>
					<path style="opacity:0.31;fill:none;stroke:#0E2433;stroke-miterlimit:10;" d="M245.522,358.642l-82.208-3.927
						c-8.173-0.39-9.46-3.517-3.114-6.856l20.432-10.753c5.566-2.93,16.129-5.064,23.676-4.815l75.489,2.484
						c8.337,0.274,11.782,3.031,7.465,6.209l-15.915,11.718C266.383,356.357,254.652,359.078,245.522,358.642z"/>
				</g>
				<g>
					<path style="fill:#017CE6;" d="M396.77,369.539c-0.327-0.004-0.656-0.115-0.929-0.339c-0.64-0.524-0.735-1.47-0.21-2.111
						l33.819-41.324c0.523-0.64,1.47-0.735,2.111-0.211c0.64,0.524,0.735,1.47,0.211,2.112l-33.819,41.324
						C397.652,369.358,397.212,369.545,396.77,369.539z"/>
				</g>
				<g>
					<path style="fill:#017CE6;" d="M434.151,322.376c-0.247,0-0.496-0.06-0.719-0.185c-0.636-0.357-0.83-1.109-0.433-1.68
						l3.863-5.542c0.398-0.571,1.237-0.743,1.874-0.388c0.636,0.357,0.83,1.109,0.433,1.68l-3.863,5.542
						C435.047,322.173,434.604,322.376,434.151,322.376z"/>
				</g>
				<g>
					<path style="fill:#017CE6;" d="M365.611,379.354c-0.028,0-0.057-0.001-0.085-0.002l-17.878-1.008
						c-0.827-0.047-1.46-0.755-1.414-1.582c0.048-0.827,0.782-1.435,1.582-1.414l17.878,1.008c0.827,0.047,1.46,0.755,1.414,1.582
						C367.062,378.736,366.401,379.354,365.611,379.354z"/>
				</g>
			</g>
			<circle style="fill:#0E2433;" cx="318.68" cy="127.817" r="2.024"/>
			<circle style="fill:#00C5BA;" cx="325.966" cy="127.817" r="2.024"/>
			<path style="opacity:0.19;fill:#017CE6;" d="M205.58,148.341l-11.327,123.893c0,0-3.595,8.505,9.102,9.842
				c12.697,1.337,219.861,6.683,219.861,6.683s-41.433-46.111-100.909-45.442c-59.476,0.668-64.822-34.75-70.168-44.774
				C246.793,188.518,237.876,142.245,205.58,148.341z"/>
			<g style="opacity:0.33;">
				<path style="fill:#017CE6;" d="M433.024,239.355l-2.95-0.093l-0.58-51.609l-0.65,0.217c-3.265,1.086-11.104-0.571-11.184-0.587
					l-0.604-0.13v10.421h-15.026v-9.519l-0.748,0.428c-3.759,2.146-8.702,0.548-8.751,0.532l-0.642-0.212l-1.161,48.752l1,0.024
					l0.629-26.412h8.673v27.178l-150.376-4.756l0.288-17.281l-6.448,0.094c3.112-3.707,6.539-8.708,5.855-12.128
					c-0.283-1.417-0.877-2.231-1.765-2.422c-0.735-0.157-1.566,0.181-2.371,0.734c1.907-3.308,3.802-7.547,2.319-9.401
					c-0.563-0.703-1.131-0.746-1.513-0.656c-1.069,0.248-1.995,2.046-2.685,3.928c0.226-6.053,0.046-15.987-3.41-17.715
					c-0.761-0.38-1.296-0.175-1.61,0.063c-1.791,1.362-1.147,8.71-0.301,14.589c-0.905-1.67-2.155-3.159-3.86-3.798
					c-0.779-0.29-1.244,0.012-1.454,0.22c-1.641,1.628,0.892,10.525,2.918,16.695c-0.95-0.917-2.196-1.693-3.82-2.055
					c-0.962-0.212-1.429,0.134-1.648,0.464c-1.074,1.606,2.051,7.211,4.843,11.606l-6.15,0.089v16.316l-32.051-1.014l-0.031,0.999
					l32.082,1.015v0.258l20.791,0.612l0.004-0.212l182.357,5.768L433.024,239.355z M231.979,205.473
					c0.044-0.065,0.147-0.086,0.26-0.086c0.125,0,0.262,0.026,0.341,0.043c2.83,0.629,4.381,2.779,5.176,4.432
					c0.322,0.92,0.587,1.653,0.758,2.12l0.96-0.27c-0.02-0.1-0.231-1.111-0.835-2.358c-2.699-7.761-5.465-17.611-4.235-18.831
					c0.028-0.028,0.104-0.105,0.398,0.007c3.119,1.17,4.566,5.921,5.118,8.392c0.119,0.65,0.22,1.175,0.29,1.538l0.987-0.162
					c-0.014-0.096-0.105-0.761-0.323-1.721c-1.322-7.32-2.576-17.745-0.954-18.977c0.058-0.044,0.193-0.146,0.558,0.035
					c3.505,1.753,3.056,15.939,2.587,21.258l0.986,0.152c0.767-3.449,2.206-7.314,3.195-7.544c0.05-0.011,0.216-0.054,0.505,0.307
					c1.485,1.856-2.329,8.612-5.115,12.489c-0.021,0.029-0.039,0.053-0.053,0.072l0.813,0.584c0.018-0.024,0.038-0.053,0.062-0.086
					c1.261-1.74,3.658-4.309,4.917-4.039c0.575,0.123,0.858,0.96,0.994,1.641c0.646,3.231-3.093,8.346-6.215,11.951l-5.972,0.087
					C233.892,211.341,231.347,206.416,231.979,205.473z M230.841,217.597l19.082-0.277l-0.27,16.235l-18.812-0.595V217.597z
					 M401.029,210.165h-8.649l0.477-20.02c1.435,0.362,4.992,1.012,8.173-0.415V210.165z M418.055,188.382
					c1.827,0.354,7.29,1.296,10.453,0.612l0.457,40.632l-10.293,0.572l0.055,0.998l10.249-0.57l0.04,3.577h-10.453l-0.509-36.145
					V188.382z M402.029,211.165h0.072v-1h-0.072v-11.592h15.026v10.947h0.161l0.187,13.261l-15.374,0.53V211.165z M402.029,238.374
					v-14.063l15.388-0.531l0.211,14.936l1-0.014l-0.049-3.499h10.45l0.045,4.027L402.029,238.374z"/>
				<rect x="392.371" y="216.461" style="fill:#017CE6;" width="8.585" height="1"/>
			</g>
		</g>
		<g>
			<path style="fill:#FFC329;" d="M255.391,280.664c-0.366-11.961,0.085-23.948,1.35-35.848
				c1.175-11.059,3.436-22.824,11.311-30.677c6.627-6.608,16.177-9.322,25.436-10.687c12.822-1.89,25.868-1.674,38.798-0.785
				c8.348,0.574,16.764,1.445,24.688,4.137c7.923,2.692,15.399,7.366,20.124,14.273c7.91,11.561,6.834,26.816,5.446,40.755
				c-0.846,8.491-1.692,16.982-2.538,25.473L255.391,280.664z"/>
		</g>
		<g>
			<defs>
				<polygon id="SVGID_1_" points="238.373,144.562 228.707,280.887 373.03,289.886 392.029,289.553 393.362,136.23 239.039,137.23 
									"/>
			</defs>
			<clipPath id="SVGID_00000147198041935296929130000012579056756141984184_">
				<use xlink:href="#SVGID_1_"  style="overflow:visible;"/>
			</clipPath>
			<g style="clip-path:url(#SVGID_00000147198041935296929130000012579056756141984184_);">
				<path style="opacity:0.85;fill:#0E2433;" d="M291.458,203.256l17.628,0.819l0.673-55.704c0,0-15.872,0.857-20.212,20.373
					C285.207,188.259,286.449,198.047,291.458,203.256z"/>
				<path style="fill:#F9B191;" d="M315.49,190.827c0,0-6.5,26.619-9.784,29.743c-3.284,3.124,20.028,18.324,28.615,3.177
					c0,0-2.814-12.524,0.498-31.375C338.131,173.522,320.066,177.751,315.49,190.827z"/>
				<path style="opacity:0.51;fill:#F9B191;" d="M305.802,221.472c6.642,1.788,14.158-9.349,17.113-14.311
					c4.897-8.224,6.543-17.695,8.625-26.915c-4.864-2.415-13.155,2.307-16.05,10.58c0,0-6.5,26.619-9.784,29.743
					c-0.233,0.222-0.319,0.509-0.299,0.837C305.539,221.429,305.664,221.435,305.802,221.472z"/>
				<path style="fill:#FF537C;" d="M301.054,219.482l-19.984,3.505l-2.947,69.535l57.437,10.287l16.497-71.686l-17.825-6.874
					C334.233,224.249,306.906,219.447,301.054,219.482z"/>
				<path style="fill:#F9B191;" d="M292.948,174.811c0.023,0.297,0.029,0.598,0.061,0.893c-0.236,3.801-0.278,8.813,0.453,13.933
					c0.159,0.868,0.335,1.735,0.55,2.599c0.94,3.783,2.161,8.137,4.308,11.445c3.261,5.024,8.831,2.701,13.544,1.123
					c9.318-3.12,18.237-7.754,24.468-15.576c3.508-4.404,5.934-9.5,8.064-14.744c1.778-14.199-6.76-27.409-19.952-30.163
					c-12.452-2.6-24.83,5-29.587,17.402C294.054,166.052,293.323,170.428,292.948,174.811z"/>
				<path style="fill:#FFFFFF;" d="M301.054,219.482c0,0-9.469,69.53-9.315,76.061c0.153,6.531-18.656-2.41-18.656-2.41
					l1.678-71.255C274.76,221.878,293.923,217.285,301.054,219.482z"/>
				<path style="fill:#FFFFFF;" d="M345.813,280.327c2.248-9.381,5.423-18.51,7.564-27.922c1.509-6.638,3.23-14.596,2.262-21.809
					c-6.063-2.959-18.105-8.507-22.044-7.92c0,0-13.9,71.709-13.326,78.315c0.574,6.605,21.09,3.706,21.09,3.706l5.261-21.314
					C345.89,282.682,345.495,281.65,345.813,280.327z"/>
				<path style="opacity:0.13;fill:#017CE6;" d="M337.637,285.488c2.358,1.89,4.793,3.655,7.09,5.563l1.893-7.669
					c-0.73-0.7-1.125-1.731-0.807-3.055c1.551-6.474,3.54-12.83,5.329-19.24c-7.274-3.533-15.045-6.188-23.125-6.667
					c-0.141-0.008-0.259-0.042-0.389-0.062c-0.875,4.768-1.765,9.692-2.611,14.48C329.13,274.73,331.823,280.828,337.637,285.488z"
					/>
				<path style="fill:#FFFFFF;" d="M274.76,221.878c0,0-45.766,38.358-42.026,44.219c3.74,5.861,8.987,8.083,18.287,4.514
					c9.3-3.57,34.545-23.851,34.545-23.851S285.572,222.043,274.76,221.878z"/>
				<path style="fill:#FFFFFF;" d="M354.485,229.814c0,0,29.951,51.661,24.437,55.896c-5.514,4.235-11.204,4.536-18.73-1.99
					c-7.526-6.526-24.346-34.198-24.346-34.198S344.264,226.284,354.485,229.814z"/>
				<g style="opacity:0.32;">
					<path style="fill:#017CE6;" d="M324.037,277.965l-1.09-0.517l14.165-29.816c-1.754-0.655-5.101-2.152-4.788-3.932
						c0.114-0.652,1.17-2.074,3.935-5.677c2.603-3.39,8.697-11.33,7.941-12.463c-2.681-1.3-10.597-2.277-10.678-2.287l0.146-1.197
						c0.333,0.041,8.198,1.012,11.054,2.398c0.342,0.167,0.572,0.458,0.663,0.844c0.467,1.98-3.254,7.035-8.17,13.438
						c-1.674,2.181-3.572,4.654-3.705,5.161c-0.106,0.605,2.097,1.944,4.626,2.801l0.642,0.217L324.037,277.965z"/>
				</g>
				<g style="opacity:0.32;">
					<path style="fill:#017CE6;" d="M293.421,273.195c-0.773-1.76-6.424-30.591-4.839-32.61c0.177-0.227,0.447-0.334,0.721-0.286
						c0.803,0.141,3.428-1.905,5.553-3.995c-2.018-3.109-8.993-14.091-8.366-16.438c0.102-0.383,0.337-0.571,0.515-0.662
						c1.992-1.012,12.852-0.397,14.084-0.323l-0.073,1.202c-4.432-0.264-11.869-0.447-13.378,0.156
						c-0.239,1.385,4.174,9.213,8.494,15.817l0.265,0.407l-0.342,0.346c-1.087,1.099-4.59,4.496-6.558,4.689
						c-0.568,3.15,3.753,28.315,5.026,31.212L293.421,273.195z"/>
				</g>
				<path style="fill:#FFFFFF;" d="M378.93,277.037c-2.642-4.456-6.58-7.89-10.116-11.656l-34.961-14.908l-9.819,11.809
					c19.99,20.83,33.056,29.358,41.528,32.138C375.34,296.158,384.787,286.916,378.93,277.037z"/>
				<g>
					<path style="fill:#017CE6;" d="M320.281,261.418l-0.442-0.467c-0.592-0.626-0.565-1.623,0.061-2.216l28.516-26.979
						c0.626-0.592,1.623-0.565,2.216,0.061l0.442,0.467c0.592,0.626,0.565,1.624-0.061,2.216l-28.516,26.979
						C321.871,262.072,320.874,262.044,320.281,261.418z"/>
					<path style="fill:#FFC329;" d="M346.803,238.941l-2.887-3.051c-0.151-0.159-0.143-0.413,0.016-0.563l0.119-0.112
						c0.159-0.151,0.412-0.144,0.563,0.016l2.887,3.051c0.151,0.159,0.144,0.412-0.016,0.563l-0.119,0.112
						C347.207,239.107,346.954,239.1,346.803,238.941z"/>
					<path style="fill:#FFC329;" d="M336.605,244.456l-0.1-0.106c-0.134-0.141-0.128-0.367,0.014-0.5l9.247-8.749
						c0.141-0.134,0.367-0.127,0.5,0.014l0.1,0.105c0.134,0.141,0.128,0.367-0.014,0.5l-9.247,8.748
						C336.964,244.604,336.739,244.597,336.605,244.456z"/>
				</g>
				<path style="fill:#FFFFFF;" d="M234.445,271.168c0,0-0.979,19.623,49.869-5.701l-4.128-11.586l-36.128,2.064
					C244.058,255.945,226.794,262.885,234.445,271.168z"/>
				<g>
					
						<rect x="289.097" y="240.45" transform="matrix(0.9849 0.173 -0.173 0.9849 50.9627 -49.433)" style="fill:#0E2433;" width="39.795" height="54.241"/>
					
						<rect x="306.316" y="238.287" transform="matrix(0.9849 0.173 -0.173 0.9849 46.517 -50.6177)" style="fill:#FFC329;" width="14.521" height="6.406"/>
				</g>
				<path style="fill:#F9B191;" d="M280.793,256.03l0.614-0.447c0.325-0.111,0.592-0.204,0.637-0.226
					c0.006-0.703,0.458-3.227,5.913-7.061c6.48-4.555,6.515-4.852,7.361-3.815c0.773,0.948-4.536,5.525-4.656,7.138
					c0.676-0.25,1.305-0.462,1.854-0.62c3.005-1.061,14.863-5.173,15.098-4.03c0.268,1.303-0.727,2.533-12.122,5.694
					c0.114,0.23,0.233,0.473,0.355,0.731c5.013-1.743,14.23-4.8,14.427-3.784c0.266,1.382-0.85,2.713-13.303,6.277
					c0.104,0.244,0.206,0.49,0.306,0.735c4.597-1.561,12.058-3.946,12.244-3.042c0.261,1.272-0.681,2.476-11.341,5.476
					c0.089,0.272,0.17,0.536,0.241,0.788c4.279-1.431,10.255-3.279,10.415-2.498c0.242,1.178-0.62,2.291-10.354,5.04
					c-1.042,0.732-8.628,1.954-13.002,2.61C281.349,263.177,280.627,259.825,280.793,256.03z"/>
				<g style="opacity:0.42;">
					<path style="fill:#017CE6;" d="M282.136,254.762c-0.072-0.011-3.42-0.508-8.679-0.523c-0.044-0.086-0.102-0.165-0.187-0.223
						c-0.424-0.289-0.659-0.701-0.722-1.258c-0.366-3.261,5.123-9.994,7.269-12.313c0.227-0.244,0.211-0.626-0.032-0.851
						c-0.243-0.224-0.625-0.214-0.852,0.033c-0.33,0.357-8.086,8.79-7.584,13.266c0.059,0.521,0.231,0.969,0.493,1.356
						c-6.183,0.1-14.519,0.901-23.216,3.693c-0.318,0.102-0.492,0.441-0.39,0.757c0.071,0.221,0.256,0.372,0.469,0.41
						c0.094,0.016,0.192,0.011,0.288-0.02c17.115-5.493,32.801-3.159,32.957-3.135c0.329,0.051,0.638-0.175,0.688-0.503
						C282.69,255.121,282.498,254.817,282.136,254.762z"/>
					<path style="fill:#017CE6;" d="M352.392,286.966c-6.595-3.267-22.282-21.424-22.44-21.607
						c-0.216-0.252-0.597-0.281-0.849-0.063c-0.252,0.217-0.281,0.597-0.063,0.849c0.65,0.755,16.005,18.527,22.819,21.901
						c0.053,0.026,0.107,0.044,0.163,0.054c0.257,0.045,0.523-0.08,0.644-0.327C352.813,287.475,352.691,287.115,352.392,286.966z"
						/>
					<path style="fill:#017CE6;" d="M372.459,272.349c-7.114-6.461-39.472-17.631-40.846-18.104
						c-0.311-0.106-0.658,0.06-0.766,0.374c-0.108,0.314,0.06,0.657,0.374,0.766c0.334,0.115,33.496,11.56,40.428,17.856
						c0.087,0.079,0.191,0.128,0.3,0.147c0.196,0.034,0.405-0.029,0.551-0.189C372.724,272.954,372.706,272.573,372.459,272.349z"/>
				</g>
				<path style="fill:#FFFFFF;" d="M305.857,218.886c-0.224,1.278-1.442,2.132-2.72,1.907c-1.278-0.225-2.132-1.442-1.907-2.72
					c0.224-1.278,1.442-2.132,2.72-1.907C305.228,216.39,306.082,217.608,305.857,218.886z"/>
				<path style="fill:#FFFFFF;" d="M308.663,224.755c-0.225,1.278-1.442,2.132-2.72,1.907c-1.278-0.224-2.132-1.442-1.907-2.72
					c0.224-1.278,1.442-2.132,2.72-1.907C308.033,222.26,308.887,223.477,308.663,224.755z"/>
				<path style="fill:#FFFFFF;" d="M314.137,229.068c-0.225,1.278-1.442,2.132-2.72,1.907c-1.278-0.224-2.132-1.442-1.907-2.72
					c0.224-1.278,1.442-2.132,2.72-1.907C313.508,226.573,314.362,227.791,314.137,229.068z"/>
				<path style="fill:#FFFFFF;" d="M320.727,230.499c-0.225,1.278-1.442,2.132-2.72,1.907c-1.278-0.225-2.132-1.442-1.907-2.72
					c0.224-1.278,1.442-2.132,2.72-1.907C320.098,228.004,320.952,229.222,320.727,230.499z"/>
				<path style="fill:#FFFFFF;" d="M328.194,229.275c-0.224,1.278-1.442,2.132-2.72,1.907c-1.278-0.224-2.132-1.442-1.907-2.72
					c0.225-1.278,1.442-2.132,2.72-1.907C327.565,226.779,328.419,227.997,328.194,229.275z"/>
				<path style="fill:#FFFFFF;" d="M334.906,225.016c-0.224,1.278-1.442,2.132-2.72,1.907c-1.278-0.225-2.132-1.442-1.907-2.72
					c0.225-1.278,1.442-2.132,2.72-1.907C334.276,222.52,335.13,223.738,334.906,225.016z"/>
				<path style="fill:#FF537C;" d="M302.794,170.7c-1.359,3.457-3.03,6.741-4.748,9.995l-1.306,2.423l-0.323,0.598l-0.146,0.286
					c-0.046,0.084-0.099,0.217-0.071,0.16c-0.032-0.03,0.016,0.027,0.001,0.055c0.044,0.056,0.064,0.114,0.119,0.181
					c0.107,0.137,0.253,0.27,0.409,0.402c0.666,0.498,1.48,0.904,2.325,1.164c0.844,0.291,1.746,0.424,2.655,0.218
					c-0.824,0.471-1.847,0.474-2.785,0.358c-0.95-0.144-1.874-0.441-2.737-0.972c-0.213-0.144-0.427-0.298-0.629-0.506
					c-0.102-0.102-0.192-0.25-0.281-0.381c-0.063-0.194-0.167-0.348-0.128-0.612c0.024-0.294,0.089-0.365,0.133-0.492l0.147-0.339
					l0.295-0.638c0.407-0.836,0.836-1.651,1.26-2.472C298.74,176.883,300.604,173.701,302.794,170.7z"/>
				<g>
					<path style="fill:#FF537C;" d="M296.938,194.575c0,0-0.515-3.447,1.875-2.898c2.389,0.55,7.791,2.964,8.824,3.017
						S296.938,194.575,296.938,194.575z"/>
					<path style="opacity:0.61;fill:#FF537C;" d="M297.582,194.848c0,0,1.048,6.07,9.849-0.13
						C307.431,194.718,298.017,192.97,297.582,194.848z"/>
				</g>
				<path style="fill:#0E2433;" d="M320.637,161.674c-0.659,0.14-14.605-25.806-26.386,4.934
					c-11.781,30.74-2.898,35.946-2.793,36.648c0.104,0.702-14.985-11.974-2.201-39.348c12.784-27.374,32.413-27.571,48.53-14.258
					C337.787,149.649,335.311,158.556,320.637,161.674z"/>
				<path style="fill:#0E2433;" d="M320.637,161.674c0,0,3.945,8.668,3.052,13.751c-0.893,5.084-5.633,11.314-4.304,15.421
					c0,0,1.493-2.016,3.987-4.54c2.494-2.524,4.597-6.711,4.543-8.999c-0.054-2.288,2.297-5.293,4.041-2.252
					c1.744,3.041,3.491,9.955-4.54,12.873c0,0,0.182,17.12-1.61,19.54c-1.792,2.419,21.186-5.164,21.186-5.164
					s16.995-28.001-10.779-54.071C336.214,148.234,319.905,156.761,320.637,161.674z"/>
				<path style="fill:#0E2433;" d="M321.366,162.714c0,0-4.441-27.894-19.073-21.123c-14.633,6.771-21.658,33.79-19.923,42.069
					c0,0,8.516-32.909,21.789-31.944C317.432,152.681,320.362,159.347,321.366,162.714z"/>
				<path style="opacity:0.5;fill:#F9B191;" d="M327.705,179.021c0,0,1.918-3.837,3.517-1.599c1.599,2.238-0.959,7.354-4.157,7.354
					C323.868,184.776,327.705,179.021,327.705,179.021z"/>
				<path style="fill:#0E2433;" d="M308.325,168.384c0,0,7.988-1.384,13.922,1.65c0,0-8.669-1.253-14.101-0.406
					C308.145,169.627,306.938,168.183,308.325,168.384z"/>
				<path style="fill:#0E2433;" d="M298.178,166.984c0,0-6.988-1.927-12.008,1.316c0,0,7.468-1.079,12.216,0.122
					C298.386,168.422,299.373,166.811,298.178,166.984z"/>
				<path style="fill:#FFFFFF;" d="M330.338,189.019c-0.224,1.278-1.442,2.132-2.72,1.907c-1.278-0.225-2.132-1.442-1.907-2.72
					c0.224-1.278,1.442-2.132,2.72-1.907C329.708,186.524,330.562,187.742,330.338,189.019z"/>
				<g>
					<path style="fill:#FFFFFF;" d="M306.777,178.421c0,0,4.914-6.794,10.738-1.534
						C317.516,176.887,311.692,184.995,306.777,178.421z"/>
					<g>
						<path style="fill:#0E2433;" d="M306.558,178.421c0,0,5.46-5.04,10.738-1.534C318.732,178.947,314.051,168.032,306.558,178.421
							z"/>
						<g>
							<defs>
								<path id="SVGID_00000085972277961673515740000001889637993826296459_" d="M306.777,178.421c0,0,4.914-6.794,10.738-1.534
									C317.516,176.887,311.692,184.995,306.777,178.421z"/>
							</defs>
							<clipPath id="SVGID_00000152979697169461389860000014759630455448535181_">
								<use xlink:href="#SVGID_00000085972277961673515740000001889637993826296459_"  style="overflow:visible;"/>
							</clipPath>
							
								<ellipse style="clip-path:url(#SVGID_00000152979697169461389860000014759630455448535181_);fill:#0E2433;" cx="308.202" cy="178.749" rx="2.52" ry="3.616"/>
						</g>
					</g>
				</g>
				<g>
					<path style="fill:#FFFFFF;" d="M292.422,178.474c1.355,0.241,2.916-0.143,4.638-1.679c0,0-1.637-3.612-4.857-4.569
						C292.089,174.298,292.179,176.389,292.422,178.474z"/>
					<path style="fill:#0E2433;" d="M292.277,171.196c-0.055,0.611-0.095,1.224-0.113,1.839c3.112,1.043,5.111,3.805,5.111,3.805
						C295.653,173.245,293.889,171.688,292.277,171.196z"/>
					<g>
						<defs>
							<path id="SVGID_00000094590279318213298080000013136544669351174050_" d="M292.422,178.474
								c1.355,0.241,2.916-0.143,4.638-1.679c0,0-1.637-3.612-4.857-4.569C292.089,174.298,292.179,176.389,292.422,178.474z"/>
						</defs>
						<clipPath id="SVGID_00000151515038014095739380000009735878188984503974_">
							<use xlink:href="#SVGID_00000094590279318213298080000013136544669351174050_"  style="overflow:visible;"/>
						</clipPath>
						<path style="clip-path:url(#SVGID_00000151515038014095739380000009735878188984503974_);fill:#0E2433;" d="M289.551,176.248
							c0.245,1.982,1.563,3.45,2.945,3.279c1.381-0.171,2.303-1.916,2.058-3.898c-0.245-1.982-1.563-3.45-2.945-3.279
							C290.227,172.521,289.306,174.266,289.551,176.248z"/>
					</g>
				</g>
			</g>
		</g>
	</g>
	<g>
		<g>
			<g>
				<circle style="fill:#FFFFFF;" cx="130.04" cy="197.913" r="13.534"/>
				<path style="fill:#FFFFFF;" d="M132.577,209.755c0,0,1.41,5.075,0.846,6.767c-0.564,1.692,4.511-5.639,4.229-9.304
					C137.371,203.552,132.859,206.372,132.577,209.755z"/>
			</g>
			<g>
				<path style="fill:#0E2433;" d="M131.164,205.286c-0.312,0-0.615-0.049-0.908-0.147c-0.337-0.112-0.651-0.291-0.932-0.525
					c-1.104,0.134-2.197,0.035-3.184-0.301c-1.998-0.68-3.52-2.357-3.877-4.27c-0.385-2.064,0.74-4.29,2.561-5.067
					c0.252-0.108,0.51-0.188,0.77-0.249c0.135-0.31,0.3-0.608,0.504-0.887c0.599-0.817,1.463-1.357,2.062-1.692
					c0.762-0.428,1.911-0.958,3.048-0.632c0.805,0.231,1.409,0.834,1.943,1.452c0.85,0.984,1.609,2.046,2.265,3.17
					c0.943-1.658,1.526-3.476,1.942-4.95l0.578,0.163c-0.451,1.596-1.094,3.589-2.171,5.381c0.023,0.05,0.046,0.1,0.067,0.151
					c0.067,0.126,0.133,0.253,0.197,0.38c0.407,0.806,0.814,1.764,0.742,2.761c-0.099,1.361-1.058,2.479-1.884,3.302
					C133.585,204.622,132.316,205.286,131.164,205.286z M130.187,204.464c0.085,0.042,0.171,0.077,0.259,0.107
					c1.449,0.483,2.983-0.641,4.015-1.669c0.751-0.749,1.625-1.757,1.708-2.92c0.027-0.372-0.025-0.74-0.125-1.101
					c-0.093,0.58-0.307,1.192-0.641,1.828c-0.972,1.854-2.584,3.182-4.312,3.552c-0.124,0.027-0.249,0.048-0.373,0.064
					C130.542,204.377,130.365,204.423,130.187,204.464z M125.345,195.42c-0.096,0.032-0.192,0.068-0.285,0.108
					c-1.573,0.671-2.542,2.606-2.207,4.405c0.318,1.704,1.684,3.201,3.481,3.813c0.678,0.231,1.416,0.342,2.165,0.326
					c-0.995-0.363-1.84-1.049-2.291-1.946c-0.35-0.264-0.621-0.556-0.82-0.881c-0.597-0.975-0.506-2.218-0.44-3.125
					C125.009,197.288,125.079,196.33,125.345,195.42z M129.257,203.671c0.432,0.092,0.884,0.117,1.337,0.064
					c0.368-0.112,0.731-0.251,1.088-0.417c1.41-0.657,2.974-1.99,3.136-3.76c0.04-0.431-0.009-0.872-0.137-1.296
					c-0.282,0.338-0.578,0.653-0.887,0.944c0.069,0.848-0.067,1.694-0.56,2.452c-0.907,1.395-2.622,1.808-4.255,1.576
					C129.063,203.39,129.155,203.536,129.257,203.671z M127.555,202.861c0.246,0.205,0.524,0.379,0.823,0.518
					c-0.045-0.094-0.087-0.192-0.125-0.291C128.015,203.025,127.781,202.949,127.555,202.861z M128.713,202.576
					c1.543,0.312,3.217-0.011,4.019-1.245c0.322-0.495,0.461-1.046,0.476-1.615c-0.023,0.019-0.047,0.037-0.07,0.056
					c-0.226,0.504-0.587,0.932-1.057,1.202c-0.137,0.121-0.278,0.233-0.417,0.334c-0.874,0.631-1.901,1.047-2.966,1.219
					c0.002,0.008,0.004,0.015,0.006,0.022C128.707,202.558,128.71,202.567,128.713,202.576z M127.122,201.999
					c0.284,0.021,0.571,0.023,0.856,0.006c-0.018-0.131-0.032-0.262-0.042-0.393c-0.439,0.006-0.921-0.037-1.37-0.192
					c0.034,0.105,0.072,0.207,0.115,0.304c0.001,0.003,0.002,0.005,0.004,0.008C126.817,201.823,126.963,201.912,127.122,201.999z
					 M128.537,201.586c0.009,0.118,0.022,0.236,0.039,0.353c0.664-0.104,1.312-0.312,1.912-0.616
					c-0.064-0.003-0.128-0.008-0.192-0.015C129.663,201.481,129.041,201.551,128.537,201.586z M126.407,200.686
					c0.383,0.232,0.867,0.308,1.32,0.322c-0.193-0.191-0.342-0.435-0.433-0.718c-0.072-0.223-0.106-0.46-0.103-0.696
					c-0.013-0.029-0.025-0.059-0.036-0.089c-0.13-0.349-0.146-0.746-0.05-1.249c0.155-0.818,0.542-1.568,1.081-2.188
					c-0.247,0.175-0.475,0.381-0.677,0.614c-0.748,0.864-1.164,2.109-1.142,3.416C126.368,200.302,126.382,200.499,126.407,200.686z
					 M128.522,200.807c0.045,0.015,0.091,0.027,0.138,0.037c-0.006-0.003-0.014-0.006-0.02-0.009
					c-0.038-0.017-0.077-0.035-0.117-0.054C128.522,200.789,128.522,200.798,128.522,200.807z M128.566,200.13
					c0.098,0.053,0.204,0.105,0.319,0.157c0.361,0.162,0.79,0.316,1.236,0.392c0.465-0.132,0.921-0.315,1.364-0.547
					c0.322-0.219,0.599-0.483,0.815-0.774c-1.121,0.251-2.38-0.364-2.842-1.427c-0.043-0.098-0.078-0.199-0.106-0.302
					c-0.113,0.059-0.219,0.12-0.319,0.182c-0.224,0.571-0.331,1.202-0.409,1.816C128.603,199.79,128.583,199.958,128.566,200.13z
					 M126.619,196.874c-0.459,0.509-0.78,1.112-0.904,1.764c-0.084,0.441-0.064,0.862,0.05,1.215
					C125.788,198.749,126.085,197.719,126.619,196.874z M127.798,199.467c0.054,0.092,0.123,0.179,0.208,0.264
					c0.008-0.061,0.015-0.121,0.022-0.18c0.043-0.342,0.096-0.689,0.171-1.033c-0.09,0.113-0.166,0.23-0.23,0.352
					C127.875,199.05,127.817,199.256,127.798,199.467z M135.119,197.704c0.165,0.406,0.267,0.831,0.301,1.257
					c0.078-0.378,0.097-0.738,0.058-1.079c-0.02-0.178-0.059-0.353-0.114-0.524c-0.042,0.061-0.084,0.122-0.127,0.183
					C135.198,197.596,135.159,197.65,135.119,197.704z M129.907,197.367c0.023,0.111,0.056,0.22,0.102,0.324
					c0.369,0.851,1.462,1.333,2.338,1.031c0.128-0.044,0.266-0.113,0.383-0.203c0.025-0.083,0.045-0.167,0.059-0.251
					c-0.015-0.154-0.044-0.306-0.089-0.456c-0.064-0.215-0.156-0.424-0.274-0.624C131.669,196.786,130.664,197.047,129.907,197.367z
					 M133.618,198.169c0.025,0.1,0.048,0.201,0.069,0.302c0.256-0.263,0.503-0.545,0.738-0.846
					c-0.236-0.462-0.567-0.886-0.978-1.233c-0.193-0.163-0.403-0.309-0.626-0.438c0.435,0.489,0.723,1.092,0.786,1.728
					C133.626,197.847,133.628,198.009,133.618,198.169z M129.68,195.588c-0.928,0.578-1.657,1.49-1.931,2.533
					c0.233-0.286,0.513-0.521,0.802-0.715c0.103-0.233,0.226-0.459,0.374-0.673c0.138-0.199,0.297-0.378,0.47-0.535
					C129.464,195.983,129.56,195.778,129.68,195.588z M126.033,195.251c-0.229,0.631-0.339,1.315-0.407,1.969
					c0.533-0.9,1.402-1.635,2.439-2.075c-0.279-0.009-0.537-0.007-0.767-0.001C126.9,195.153,126.466,195.176,126.033,195.251z
					 M132.202,195.016c0.607,0.21,1.164,0.52,1.634,0.918c0.394,0.333,0.724,0.729,0.98,1.16c0.084-0.121,0.165-0.243,0.244-0.367
					c-0.035-0.062-0.07-0.124-0.106-0.187c-0.612-0.88-1.675-1.519-2.824-1.6C132.155,194.966,132.179,194.991,132.202,195.016z
					 M129.925,196.536c-0.015,0.064-0.027,0.127-0.036,0.192c0.696-0.267,1.327-0.38,1.886-0.333
					c-0.128-0.117-0.266-0.227-0.412-0.329C130.844,195.998,130.327,196.215,129.925,196.536z M131.868,194.332
					c0.078,0,0.155,0.002,0.233,0.006c0.614,0.033,1.201,0.197,1.729,0.462c-0.356-0.496-0.735-0.975-1.134-1.437
					c-0.473-0.548-1-1.08-1.654-1.268c-0.703-0.201-1.525-0.018-2.59,0.578c-0.873,0.489-1.467,0.973-1.871,1.523
					c-0.095,0.131-0.182,0.267-0.259,0.408c0.332-0.038,0.657-0.053,0.961-0.06c0.644-0.016,1.51-0.005,2.395,0.184
					c0.115-0.012,0.231-0.02,0.348-0.025c0.015-0.001,0.03-0.001,0.046-0.002C130.639,194.463,131.249,194.332,131.868,194.332z"/>
			</g>
		</g>
		<g>
			<g>
				<polygon style="opacity:0.25;fill:#017CE6;" points="99.119,330.1 290.94,337.242 338.102,298.958 161.602,303.226 				"/>
				<path style="fill:#FFC329;" d="M134.671,309.887c0,0,3.617,21.342,5.571,22.655c1.954,1.313,2.372-22.516,2.372-22.516
					S136.539,304.998,134.671,309.887z"/>
				<path style="fill:#FFC329;" d="M282.815,313.771c0,0,3.617,21.342,5.571,22.655c1.954,1.313,2.372-22.516,2.372-22.516
					S284.683,308.882,282.815,313.771z"/>
				<path style="fill:#FFC329;" d="M326.094,284.609c0,0,3.102,18.548,4.92,19.666c1.818,1.117,2.543-19.655,2.543-19.655
					S327.919,280.322,326.094,284.609z"/>
				<g>
					<path style="fill:#017CE6;" d="M335.275,282.03l-5.196,3.951c-30.082-0.006-161.053-0.694-174.657-12.15
						c-15.381-12.952-20.238-33.19-20.238-33.19L87.4,258.182c-0.72-1.282-1.722-2.66-3.01-3.516
						c-2.953-1.961-2.569,5.563-2.569,5.563c0.046,0.13,0.129,0.243,0.231,0.348c11.397,17.074,22.018,35.605,40.329,45.435
						c4.266,2.29,8.7,4.283,13.254,6.005c54.266,4.557,158.199,8.006,158.199,8.006l42.385-34.053L335.275,282.03z"/>
					<path style="fill:#017CE6;" d="M335.275,282.03l-5.196,3.951c-30.082-0.006-161.053-0.694-174.657-12.15
						c-15.381-12.952-20.238-33.19-20.238-33.19L87.4,258.182c-0.72-1.282-1.722-2.66-3.01-3.516
						c-2.953-1.961-2.569,5.563-2.569,5.563c0.046,0.13,0.129,0.243,0.231,0.348c11.397,17.074,22.018,35.605,40.329,45.435
						c4.266,2.29,8.7,4.283,13.254,6.005c54.266,4.557,158.199,8.006,158.199,8.006l42.385-34.053L335.275,282.03z"/>
					<path style="fill:#017CE6;" d="M157.991,268.269c-15.381-12.952-20.238-33.19-20.238-33.19l-53.362,19.589
						c11.485,17.169,22.125,35.886,40.56,45.783c4.266,2.29,8.7,4.283,13.254,6.005c54.266,4.557,154.166,9.575,154.166,9.575
						l42.904-34C335.275,282.03,173.372,281.221,157.991,268.269z"/>
				</g>
			</g>
			<g>
				<g>
					<path style="fill:#0E2433;" d="M218.073,295.912c-5.504-2.84-51.699-12.341-51.699-12.341s-1.652,0.305-3.847,0.899
						c-2.978,3.466-6.343,6.531-10.281,8.959c2.242,5.265,13.059,17.253,65.262,9.075
						C217.507,302.505,223.577,298.752,218.073,295.912z"/>
					<path style="fill:#0E2433;" d="M222.456,283.091c-5.448-2.111-48.919-6.444-53.829-6.928c-3.1,4.842-6.574,9.35-10.772,13.077
						c4.411,5.266,18.715,12.811,64.74,0.466C222.595,289.707,228.231,285.329,222.456,283.091z"/>
					<path style="fill:#0E2433;" d="M268.975,300.458c-13.858-2.159-66.901-8.973-66.901-8.973s3.612,10.296,12.652,10.285
						c0,0,9.663,7.271,53.885,2.65C268.649,303.095,268.781,301.775,268.975,300.458z"/>
					<g>
						<path style="fill:#F9B191;" d="M268.126,300.72c0,0,4.071-1.224,4.198-5.885c0.127-4.661-0.55-8.749,3.308-8.049
							c3.857,0.7,1.852,15.282,0.27,17.25c-1.582,1.967-7.945-0.023-7.945-0.023S266.227,301.328,268.126,300.72z"/>
						<path style="fill:#0E2433;" d="M272.142,305.044c0,0,4.929-12.116,0.411-14.169c0,0-1.232-4.518,2.053-4.518
							s4.723,5.75,3.491,10.268C276.865,301.142,278.919,305.249,272.142,305.044z"/>
					</g>
					<g>
						<path style="fill:#F9B191;" d="M275.518,282.033c0,0,4.07-1.224,4.198-5.885c0.127-4.661-0.55-8.749,3.307-8.049
							s1.852,15.282,0.27,17.25c-1.582,1.967-7.945-0.023-7.945-0.023S273.62,282.641,275.518,282.033z"/>
						<path style="fill:#0E2433;" d="M279.535,286.356c0,0,4.929-12.116,0.411-14.17c0,0-1.232-4.518,2.053-4.518
							s4.723,5.75,3.491,10.268C284.258,282.454,286.312,286.562,279.535,286.356z"/>
					</g>
					<path style="fill:#0E2433;" d="M274.944,282.265c-11.356-0.658-68.867-1.872-68.867-1.872s4.688,9.853,13.675,8.879
						c0,0,10.681,6.379,55.741-3.509C275.288,284.601,275.106,283.435,274.944,282.265z"/>
				</g>
				<g>
					<path style="fill:#F9B191;" d="M123.073,249.257c0,0,5.107,6.712,6.412,9.076c1.305,2.363,8.514-1.336,7.549-6.13l-6.553-9.839
						C130.481,242.364,119.559,243.908,123.073,249.257z"/>
					<path style="opacity:0.5;fill:#F9B191;" d="M136.329,255.69c0.632-1.025,0.962-2.215,0.705-3.488l-6.553-9.839
						c0,0-3.593,0.51-5.995,1.954C128.01,248.506,132.001,252.328,136.329,255.69z"/>
					<path style="fill:#F9B191;" d="M132.114,223.208c-4.177-6.591-12.63-8.975-19.336-5.272
						c-6.975,3.851-9.405,12.812-5.427,20.016c1.188,2.151,2.818,3.892,4.699,5.188c2.92,2.462,9.529,7.528,13.245,6.39
						c4.868-1.491,14.98-4.204,15.628-8.389C141.456,237.696,136.143,228.411,132.114,223.208z"/>
					<path style="opacity:0.5;fill:#F9B191;" d="M129.83,247.574c-3.073,1.374-5.94,1.764-8.66,1.476
						c1.523,0.585,2.964,0.835,4.124,0.479c4.868-1.491,14.98-4.204,15.628-8.389c0.001-0.006,0-0.013,0.001-0.019
						C137.942,244.113,132.99,246.161,129.83,247.574z"/>
					<path style="fill:#0E2433;" d="M123.073,249.257c0,0,0.885-3.809-4.434-6.937c0,0-6.257-1.251-4.693-6.883
						c1.564-5.631,5.631,0.939,6.882,2.816c1.251,1.877,4.38,3.441,5.631,2.816c1.251-0.626-9.072-8.76-9.072-11.262
						c0-2.503,5.944-4.693,3.754-12.827c0,0,1.564,8.447,1.564,9.385c0,0.939,8.447-2.503,7.195-7.508
						c0,0-13.452-11.262-24.089,3.754C95.176,237.627,113.741,252.441,123.073,249.257z"/>
					<g>
						<path style="fill:#0E2433;" d="M105.982,227.892c-1.804-1.5-2.719-3.832-4.374-5.495c-0.965-0.969-2.034-1.901-3.335-2.32
							c-1.302-0.419-2.89-0.211-3.782,0.826c-1.034,1.201-0.798,3.114,0.11,4.414c0.908,1.3,2.328,2.13,3.703,2.919
							c-1.592-0.279-3.262-0.091-4.753,0.534c-1.485,0.623-2.911,1.949-2.785,3.554c0.105,1.337,1.338,2.407,2.664,2.607
							c1.326,0.201,2.679-0.329,3.746-1.142c-0.61,0.867-1.236,1.77-1.433,2.812c-0.197,1.042,0.157,2.268,1.097,2.758
							c0.757,0.394,1.677,0.229,2.492-0.022c2.512-0.775,4.789-2.296,6.467-4.32C105.798,235.018,109.225,230.59,105.982,227.892z"
							/>
					</g>
					<path style="fill:#F9B191;" d="M132.909,225.9c0,0,3.671,2.375,4.75,2.375c1.08,0,0,2.375-1.188,3.023"/>
					<path style="fill:#0E2433;" d="M128.051,224.928l0.756,0.432c0,0-1.295,4.534-3.347,5.29
						C125.46,230.65,127.943,226.656,128.051,224.928z"/>
					<path style="fill:#FFFFFF;" d="M128.465,232.053c0.812-1.543,1.973-2.861,3.407-3.686c-0.031-0.217-0.063-0.436-0.124-0.68
						c0,0-3.5-1.54-4.2,4.34C127.548,232.027,127.931,232.074,128.465,232.053z"/>
					<path style="fill:#0E2433;" d="M127.619,232.377c0,0,0.594-4.846,4.13-4.69c0,0-1.97-1.248-3.806,1.991
						C127.943,229.678,127.187,231.406,127.619,232.377z"/>
					<g>
						<defs>
							<path id="SVGID_00000001656418474294548260000008262700066605261185_" d="M128.465,232.053
								c0.812-1.543,1.973-2.861,3.407-3.686c-0.031-0.217-0.063-0.436-0.124-0.68c0,0-3.5-1.54-4.2,4.34
								C127.548,232.027,127.931,232.074,128.465,232.053z"/>
						</defs>
						<clipPath id="SVGID_00000048499007266619220940000008316389004629831842_">
							<use xlink:href="#SVGID_00000001656418474294548260000008262700066605261185_"  style="overflow:visible;"/>
						</clipPath>
						<path style="clip-path:url(#SVGID_00000048499007266619220940000008316389004629831842_);fill:#0E2433;" d="M132.261,228.761
							c0,0.745-0.58,1.35-1.296,1.35c-0.715,0-1.295-0.604-1.295-1.35c0-0.745,0.58-1.349,1.295-1.349
							C131.681,227.411,132.261,228.016,132.261,228.761z"/>
					</g>
					<path style="fill:#017CE6;" d="M128.465,232.053c0,0-0.307,1.62,0.665,1.835s-0.324-1.943,0-2.267
						c0.324-0.324,0.972-0.972,0.648-1.079C129.454,230.434,128.556,231.081,128.465,232.053z"/>
					<path style="fill:#FF537C;" d="M138.199,233.241c0,0-2.159,1.727-1.619,4.642c0,0,3.239-0.54,3.347-1.188
						C139.926,236.695,138.954,232.809,138.199,233.241z"/>
					<path style="fill:#0E2433;" d="M139.062,234.213c0,0-1.296,1.511-1.511,2.375l2.159-0.972L139.062,234.213z"/>
					<path style="fill:#0E2433;" d="M122.007,250.649c1.651-0.947,2.799-2.119,3.027-4.158c0.121-1.078-0.017-3.623-1.126-4.245
						c-0.992-0.557-3.585,0.414-4.884,0.021c-1.861-0.563-2.977-2.067-3.367-3.91c-0.2-0.947,0.017-1.751,0.462-2.372
						c0.248-0.399,0.557-0.655,0.88-0.819c0.488-0.311,1.05-0.493,1.614-0.531c-0.893-1.403-2.404-5.612-6.216-0.529
						c-4.21,5.614,5.398,13.71,7.557,14.466C121.331,249.053,121.827,250.013,122.007,250.649z"/>
					<path style="opacity:0.5;fill:#F9B191;" d="M119.198,237.451c0,0-2.051-0.756-2.159,0.756c-0.108,1.511,2.807,4.21,4.642,2.051
						L119.198,237.451z"/>
					<path style="fill:#FFFFFF;" d="M124.704,242.255c0,0.566-0.459,1.026-1.026,1.026c-0.566,0-1.025-0.459-1.025-1.026
						c0-0.566,0.459-1.025,1.025-1.025C124.245,241.23,124.704,241.689,124.704,242.255z"/>
				</g>
				<g>
					<path style="fill:#F9B191;" d="M161.129,220.176l-0.129-0.39c-0.003-0.185-0.007-0.337-0.011-0.363
						c-0.361-0.126-1.589-0.794-2.663-4.236c-1.276-4.088-1.423-4.158-0.748-4.408c0.617-0.228,2.098,3.268,2.91,3.61
						c-0.017-0.387-0.022-0.744-0.013-1.051c-0.049-1.713-0.205-8.46,0.423-8.381c0.716,0.09,1.186,0.81,0.928,7.156
						c0.138-0.018,0.283-0.036,0.436-0.054c-0.068-2.853-0.118-8.073,0.439-7.996c0.757,0.105,1.258,0.904,1.034,7.859
						c0.143-0.01,0.287-0.02,0.43-0.028c-0.044-2.61-0.037-6.82,0.46-6.757c0.7,0.088,1.164,0.777,0.945,6.721
						c0.155,0.002,0.305,0.007,0.447,0.015c-0.029-2.426,0.008-5.786,0.438-5.732c0.648,0.081,1.079,0.714,0.884,6.144
						c0.205,0.657-0.422,4.729-0.808,7.067C164.908,221.136,163.059,220.921,161.129,220.176z"/>
					<path style="fill:#FFC329;" d="M172.164,246.669c-0.374-6.879-5.66-28.751-5.66-28.751l-5.631,1.877
						c-1.306,14.332-0.292,20.106,0.979,24.28c-10.572,1.122-26.14,5.924-26.117,10.306c0.005,1.007,5.985,11.518,33.829-2.347
						C169.563,252.035,173.298,249.73,172.164,246.669z"/>
					<path style="opacity:0.4;fill:#FFC329;" d="M136.277,255.475c1.974,2.679,9.948,8.181,33.286-3.44c0,0,2.188-1.357,2.702-3.368
						C160.622,252.412,148.346,253.484,136.277,255.475z"/>
					<path style="fill:#FFC329;" d="M174.371,276.936c-0.323-2.047-9.143-5.124-15.52-12.477c2-4.808-1.461-10.437-3.423-10.129
						c-0.822,0.129-3.448-0.191-6.402-0.64c-2.568-1.678-5.321-3.002-8.348-3.759l-0.623,0.361
						c-1.049-1.637-2.746-4.668-3.759-3.317c-1.248,1.664-11.027,4.785-12.483,5.409c-1.154,0.495,2.126,3.334,3.541,4.494
						l-2.229,2.182c-1.757,3.88-1.821,7.676-0.708,11.267c7.275,6.454,18.351,20.478,31.021,27.621
						C155.438,297.95,175.06,281.297,174.371,276.936z"/>
					<path style="opacity:0.4;fill:#FFC329;" d="M174.371,276.936c-0.195-1.233-3.476-2.847-7.444-5.536
						c-4.229,5.59-10.542,9.177-18.429,8.494c-10.449-0.905-19.87-9.481-24.009-19.192c-1.106,3.309-1.027,6.543-0.072,9.626
						c7.275,6.454,18.351,20.478,31.021,27.621C155.438,297.95,175.06,281.297,174.371,276.936z"/>
					<path style="opacity:0.31;fill:#0E2433;" d="M144.203,250.929c1.268,0.573,2.543,1.084,3.814,1.57
						c1.277,0.468,2.566,0.886,3.875,1.146c0.652,0.139,1.311,0.24,1.967,0.273c0.328,0.02,0.658,0.048,0.987,0.019l0.495-0.021
						c0.229-0.013,0.411,0.006,0.606,0.035c0.762,0.114,1.488,0.487,1.976,1.057c0.482,0.573,0.764,1.259,0.844,1.953
						c-0.53-1.304-1.663-2.209-2.898-2.234c-0.148-0.007-0.312,0-0.427,0.021l-0.537,0.062c-0.359,0.055-0.719,0.051-1.08,0.053
						c-0.722-0.007-1.434-0.108-2.134-0.24C148.907,254.016,146.344,252.713,144.203,250.929z"/>
					<path style="opacity:0.31;fill:#0E2433;" d="M130.887,255.09c1.554-0.769,3.086-1.4,4.507-2.209
						c1.431-0.795,2.735-1.695,3.607-3.201c-0.028,0.88-0.462,1.736-1.041,2.417c-0.575,0.702-1.317,1.219-2.078,1.656
						c-0.773,0.422-1.583,0.757-2.424,0.977C132.621,254.958,131.762,255.108,130.887,255.09z"/>
					<g>
						<path style="fill:#F9B191;" d="M158.674,272.659l0.255-0.322c0.153-0.105,0.277-0.191,0.298-0.209
							c-0.094-0.371-0.209-1.764,2.077-4.552c2.715-3.312,2.692-3.473,3.272-3.046c0.53,0.391-1.579,3.549-1.418,4.415
							c0.314-0.227,0.609-0.427,0.871-0.588c1.404-0.982,6.957-4.818,7.236-4.25c0.318,0.648-0.025,1.436-5.47,4.706
							c0.091,0.105,0.186,0.217,0.284,0.335c2.347-1.624,6.682-4.533,6.923-4.025c0.328,0.69-0.064,1.548-5.999,5.18
							c0.087,0.114,0.174,0.229,0.259,0.344c2.157-1.47,5.678-3.777,5.899-3.327c0.311,0.633-0.01,1.4-5.097,4.482
							c0.084,0.131,0.162,0.258,0.233,0.381c2.011-1.356,4.84-3.172,5.031-2.783c0.288,0.586-0.004,1.294-4.648,4.113
							c-0.437,0.532-4.183,2.245-6.35,3.207C159.947,276.344,159.112,274.681,158.674,272.659z"/>
						<path style="fill:#FFC329;" d="M158.674,272.659c-11.757,3.169-15.917,6.441-19.832,8.901
							c-1.746-10.47-7.079-25.034-11.344-24.821c-1.006,0.05-11.237,6.497,3.865,33.689c0,0,0.873,1.287,2.211,2.066
							c0.808,0.774,1.854,1.328,2.944,1.38c3.361,0.16,27.21-17.4,27.21-17.4L158.674,272.659z"/>
						<path style="opacity:0.31;fill:#0E2433;" d="M133.8,259.876c0.779,1.699,1.434,3.45,2.089,5.202
							c0.618,1.765,1.196,3.545,1.703,5.35c0.513,1.803,0.945,3.631,1.264,5.489c0.305,1.858,0.521,3.743,0.486,5.659l-0.753-0.446
							c3.193-1.849,6.418-3.625,9.732-5.244c1.655-0.811,3.326-1.592,5.02-2.321c1.707-0.694,3.424-1.395,5.218-1.83
							c-1.723,0.648-3.382,1.432-5.014,2.272c-1.642,0.816-3.267,1.668-4.872,2.558c-3.212,1.772-6.418,3.568-9.576,5.425
							l-0.777,0.457l0.024-0.903c0.048-1.817-0.151-3.654-0.423-5.477c-0.254-1.829-0.676-3.636-1.074-5.448
							c-0.412-1.81-0.904-3.605-1.424-5.391C134.928,263.432,134.367,261.655,133.8,259.876z"/>
					</g>
				</g>
			</g>
		</g>
	</g>
</g>
</svg>
